<?xml version="1.0" encoding="UTF-8" standalone="no"?>
<svg
   xmlns:dc="http://purl.org/dc/elements/1.1/"
   xmlns:cc="http://creativecommons.org/ns#"
   xmlns:rdf="http://www.w3.org/1999/02/22-rdf-syntax-ns#"
   xmlns:svg="http://www.w3.org/2000/svg"
   xmlns="http://www.w3.org/2000/svg"
   xmlns:sodipodi="http://sodipodi.sourceforge.net/DTD/sodipodi-0.dtd"
   xmlns:inkscape="http://www.inkscape.org/namespaces/inkscape"
   width="107.83334mm"
   height="69.551498mm"
   viewBox="0 0 305.6693 197.15384"
   version="1.2"
   id="svg3449"
   sodipodi:docname="variables.svg"
   inkscape:version="0.92.5 (2060ec1f9f, 2020-04-08)">
  <metadata
     id="metadata3455">
    <rdf:RDF>
      <cc:Work
         rdf:about="">
        <dc:format>image/svg+xml</dc:format>
        <dc:type
           rdf:resource="http://purl.org/dc/dcmitype/StillImage" />
        <dc:title></dc:title>
      </cc:Work>
    </rdf:RDF>
  </metadata>
  <defs
     id="defs3453" />
  <sodipodi:namedview
     pagecolor="#ffffff"
     bordercolor="#666666"
     borderopacity="1"
     objecttolerance="10"
     gridtolerance="10"
     guidetolerance="10"
     inkscape:pageopacity="0"
     inkscape:pageshadow="2"
     inkscape:window-width="2560"
     inkscape:window-height="1381"
     id="namedview3451"
     showgrid="false"
     fit-margin-top="1"
     fit-margin-left="1"
     fit-margin-right="1"
     fit-margin-bottom="1"
     units="mm"
     inkscape:zoom="2.3786088"
     inkscape:cx="373.70145"
     inkscape:cy="100.83974"
     inkscape:window-x="0"
     inkscape:window-y="0"
     inkscape:window-maximized="1"
     inkscape:current-layer="svg3449" />
  <path
     inkscape:connector-curvature="0"
     id="path2480"
     d="m 169.31146,69.139649 v 6.593257"
     style="fill:none;stroke:#820000;stroke-width:0.79072082;stroke-linecap:round;stroke-linejoin:round;stroke-miterlimit:10;stroke-opacity:1" />
  <path
     inkscape:connector-curvature="0"
     id="path2742"
     d="m 121.85715,124.49585 v 2.63876 H 98.137103 v -2.63876 z m 0,0"
     style="fill:#820000;fill-opacity:1;fill-rule:evenodd;stroke:#820000;stroke-width:0.79072082;stroke-linecap:round;stroke-linejoin:round;stroke-miterlimit:10;stroke-opacity:1" />
  <path
     id="path2800"
     style="fill:none;stroke:#820000;stroke-width:0.79072082;stroke-linecap:round;stroke-linejoin:round;stroke-miterlimit:10;stroke-opacity:1"
     d="m 162.71822,174.58892 h 6.59324 m 0,6.58612 -6.59324,-6.58612 m 13.1865,0 -6.59326,6.58612 m 0,-6.58612 h 6.59326 m -6.59326,-6.59325 v 6.59325" />
  <path
     id="path3112"
     style="fill:none;stroke:#820000;stroke-width:1.31786764;stroke-linecap:round;stroke-linejoin:round;stroke-miterlimit:10;stroke-opacity:1"
     d="M 83.634815,83.641955 H 57.276048 M 83.634815,94.182606 V 83.641955 M 57.276048,94.182606 H 83.634815 M 57.276048,83.641955 V 94.182606 M 174.58177,108.68491 h -10.54064 m 10.54064,26.35875 v -26.35875 m -10.54064,26.35875 h 10.54064 m -10.54064,-26.35875 v 26.35875 M 174.58177,69.139649 H 164.04113 M 174.58177,42.7809 V 69.139649 M 164.04113,42.7809 h 10.54064 M 164.04113,69.139649 V 42.7809" />
  <path
     id="path3262"
     style="fill:none;stroke:#008282;stroke-width:0.79072082;stroke-linecap:round;stroke-linejoin:round;stroke-miterlimit:10;stroke-opacity:1"
     d="m 75.725748,70.455441 0.443351,-0.436193 m -0.879562,0.879544 0.436211,-0.443351 m -0.879562,0.879562 0.443351,-0.436211 m -0.443351,1.759161 v -1.32295 m 0,3.074935 v -1.751985 m 0,3.074953 v -1.322968 m 0.443351,1.759161 -0.443351,-0.436193 m 0.879562,0.872441 -0.436211,-0.436248 m 0.879562,0.436248 h -0.443351 m 1.32295,0 h -0.879599 m 1.315792,0 h -0.436193 m 0.872441,-0.436248 -0.436248,0.436248 m 0.879599,-0.872441 -0.443351,0.436193 m 0.443351,-1.759161 v 1.322968 m 0,-3.074953 v 1.751985 m 0,-3.074935 v 1.32295 m -0.443351,-1.759161 0.443351,0.436211 m -0.879599,-0.879562 0.436248,0.443351 m -0.872441,-0.879544 0.436193,0.436193 m -1.315792,-0.436193 h 0.879599 m -7.909049,0.436193 0.879544,-0.436193 m -0.879544,0.879544 v -0.443351 m -0.443369,0.879562 0.443369,-0.436211 m -0.879599,1.759161 0.43623,-1.32295 m -0.43623,3.074935 v -1.751985 m 0.43623,3.074953 -0.43623,-1.322968 m 0.879599,1.759161 -0.443369,-0.436193 m 0.443369,0.872441 v -0.436248 m 0.879544,0.436248 h -0.879544 m 1.315792,0 h -0.436248 m 1.31581,0 h -0.879562 m 1.315792,-0.436248 -0.43623,0.436248 m 0.43623,-0.872441 v 0.436193 m 0.443369,-1.759161 -0.443369,1.322968 m 0.443369,-3.074953 v 1.751985 m -0.443369,-3.074935 0.443369,1.32295 m -0.443369,-1.759161 v 0.436211 m -0.43623,-0.879562 0.43623,0.443351 m -1.315792,-0.879544 0.879562,0.436193 m -1.31581,-0.436193 h 0.436248 m -8.788648,6.586099 h 4.397903 m -0.443351,-3.511146 -3.954552,3.511146 m 4.397903,-4.826956 -0.443351,1.31581 m 0.443351,-1.759198 v 0.443388 m -0.443351,-0.879599 0.443351,0.436211 m -0.879599,-0.879562 0.436248,0.443351 m -0.879599,-0.879544 0.443351,0.436193 m -2.202512,-0.436193 h 1.759161 m -2.195354,0.436193 0.436193,-0.436193 m -0.872441,0.879544 0.436248,-0.443351 m 11.863546,-7.358439 0.436248,0.443387 m -1.75204,-0.443387 h 1.315792 m -1.759143,0.443387 0.443351,-0.443387 m -0.879544,0.879598 0.436193,-0.436211 m -0.879562,0.879562 0.443369,-0.443351 m -0.443369,2.195336 v -1.751985 m 0.443369,2.195391 -0.443369,-0.443406 m 0.879562,0.879599 -0.436193,-0.436193 m 0.879544,0.879562 -0.443351,-0.443369 m 1.759143,0.443369 h -1.315792 m 1.75204,-0.443369 -0.436248,0.443369 m 0.436248,0 V 60.901647 M 68.26005,61.673951 H 65.621345 M 68.69628,61.2306 68.26005,61.673951 M 69.139649,61.2306 H 68.69628 m 0.443369,-0.879599 V 61.2306 m 0,-1.759161 v 0.879562 m 0,-1.759161 v 0.879599 M 68.69628,58.59184 h 0.443369 m -0.879599,-0.436193 0.43623,0.436193 m -3.074935,-0.436193 h 2.638705 m -2.638705,6.593257 v -6.593257 m 3.518304,6.593257 -1.759161,-3.074953 M 233.02008,126.6984 h 0.43623 m -1.31577,0 h 0.87954 m -0.87954,0.43621 v -0.43621 m -0.44337,0.87956 0.44337,-0.44335 m -0.44337,3.51831 v -3.95452 m -3.95454,3.95452 h -0.87244 m 1.31579,0 h -0.44335 m 0.8796,-0.44337 -0.43625,0.44337 m 0.43625,-0.87957 v 0.4362 m 0,-2.63159 v 2.19539 m 0,-2.63874 v 0.44335 m -0.43625,-0.87956 0.43625,0.43621 m -0.8796,-0.43621 h 0.44335 m -1.31579,0 h 0.87244 m -1.75198,0 h 0.87954 m -1.32293,0.43621 0.44339,-0.43621 m -0.44339,0.87956 v -0.44335 m 0,2.63874 v -2.19539 m 0,2.63159 v -0.4362 m 0.44339,0.87957 -0.44339,-0.44337 m 1.32293,0.44337 h -0.87954 m -3.07495,0 h 0.43619 m -1.31579,0 h 0.8796 m -0.8796,-0.87957 v 0.87957 m 0,-6.59326 v 5.71369 m -0.87958,-3.07495 h 2.19537 m -5.27031,0 h 0.87956 m -1.75916,0 h 0.8796 m -1.32295,0 h 0.44335 m -0.87954,0.87956 0.43619,-0.87956 m -0.43619,0.87956 v 0 m 0.43619,0.87244 -0.43619,-0.87244 m 0.87954,0.87244 h -0.44335 m 1.32295,0 h -0.8796 m 1.75916,0.44335 -0.87956,-0.44335 m 0.87956,1.32295 v -0.8796 m 0,0.8796 v 0 m 0,0.87957 v -0.87957 m -0.87956,0.87957 h 0.87956 m -2.20251,0 h 1.32295 m -1.75914,0 h 0.43619 m -3.07497,-6.59326 v 0.8796 m 0,-0.44341 v -0.43619 m 0,0.8796 v -0.44341 m -0.43619,0 0.43619,0.44341 m 0,-0.8796 -0.43619,0.43619 m 0.43619,6.15707 v -3.95452 m -3.51113,0.87956 v 3.07496 m 0,-3.95452 v 0.87956 m -0.8796,-0.87956 h 0.8796 m -1.75914,0 h 0.87954 m -1.31581,0 h 0.43627 m -0.8796,0.87956 0.44333,-0.87956 m -0.44333,0.87956 v 3.07496 m -0.43621,-3.95452 0.43621,0.87956 m -0.87958,-0.87956 h 0.44337 m -1.32297,0 h 0.8796 m -1.75202,0 h 0.87242 m -1.31577,0.43621 0.44335,-0.43621 m -0.44335,3.95452 v -3.95452 m -2.63162,0 h 0.43624 m -0.87959,0 h 0.44335 m -0.87955,0.43621 0.4362,-0.43621 m -0.87957,0.87956 0.44337,-0.44335 m -0.44337,3.51831 v -3.95452 m -2.63158,1.31581 -3.08211,0.43619 m 3.08211,-0.87244 v 0.43625 m -0.44333,-1.31581 0.44333,0.87956 m -0.8796,-0.87956 h 0.43627 m -1.75918,0 h 1.32291 m -2.20251,0 h 0.8796 m -0.8796,0.87956 v -0.87956 m 0,3.07495 v -2.19539 m 0,3.07496 v -0.87957 m 0.8796,0.87957 h -0.8796 m 2.20251,0 h -1.32291 m 1.75918,0 h -0.43627 m -7.90905,-3.95452 v 0.43621 m 0.8796,-0.43621 h -0.8796 m 1.75914,0 h -0.87954 m 1.31581,0 h -0.43627 m 0.87245,0.87956 -0.43618,-0.87956 m 0.43618,3.95452 v -3.07496 m -2.63159,3.07496 v -6.59326 m -4.39785,6.59326 v -6.59326 m -1.75205,0 h 3.95457 m 4.39074,-2.52431 h 0.87955 m -1.31582,0 h 0.43627 m -0.8796,-0.8796 0.44333,0.8796 m -0.44333,-6.59329 v 5.71369 m -0.87958,-3.5183 h 2.63873 m -5.71366,-1.42305 h -2.63874 m 3.51828,-0.44339 -0.87954,0.44339 m 0.87954,-0.44339 v 0 m 0.43625,-0.87956 -0.43625,0.87956 m 0.43625,-1.75916 v 0.8796 m -0.43625,-1.31579 0.43625,0.43619 m -0.43625,-0.87239 v 0.4362 m -0.87954,-0.8796 0.87954,0.4434 m -3.51828,-0.4434 h 2.63874 m -2.63874,6.59329 v -6.59329 m 3.95453,6.59329 -2.19539,-3.07495 m -9.22486,78.20382 h -1.31579 m 2.19539,-0.43625 -0.8796,0.43625 m 1.75916,-0.8796 -0.87956,0.44335 m 0.87956,-1.32294 v 0.87959 m 0.43623,-1.75916 -0.43623,0.87957 m 0.43623,-2.19536 v 1.31579 m -0.43623,-2.63158 0.43623,1.31579 m -0.43623,-1.75916 v 0.44337 m -0.87956,-0.87956 0.87956,0.43619 m -1.75916,-0.8796 0.8796,0.44341 m -2.19539,-0.44341 h 1.31579 m -1.31579,6.59331 v -6.59331 m -3.51829,6.59331 v -6.59331 m -3.51116,0 3.51116,6.59331 m -3.51116,0 v -6.59331 m -3.07494,3.95455 h -1.32297 m 1.32297,1.75916 v -1.75916 m 0,2.20251 v -0.44335 m -1.32297,0.8796 1.32297,-0.43625 m -1.75918,0.43625 h 0.43621 m -1.31581,-0.43625 0.8796,0.43625 m -1.32293,-0.8796 0.44333,0.44335 m -0.87954,-1.32294 0.43621,0.87959 m -0.87246,-1.75916 0.43625,0.87957 m -0.43625,-2.19536 v 1.31579 m 0.43625,-2.63158 -0.43625,1.31579 m 0.87246,-1.75916 -0.43621,0.44337 m 0.87954,-0.87956 -0.44333,0.43619 m 1.32293,-0.8796 -0.8796,0.44341 m 1.75918,-0.44341 h -0.87958 m 1.75918,0.44341 -0.8796,-0.44341 M 180.29546,3.6718482 180.73165,3.2356369 m -0.87244,0.8795806 0.43625,-0.4433693 m -0.8796,0.8795806 0.44335,-0.4362113 m -0.44335,1.7591428 V 4.5514288 m 0,2.6387234 V 5.8743603 m 0,2.6315838 V 7.1901522 m 0.44335,2.1953725 -0.44335,-0.8795806 m 0.8796,1.3229498 -0.43625,-0.4433692 m 0.87244,0.4433692 h -0.43619 m 1.31579,0 h -0.8796 m 1.32297,0 h -0.44337 m 0.87956,-0.4433692 -0.43619,0.4433692 m 0.87955,-1.3229498 -0.44336,0.8795806 m 0.44336,-2.1953725 v 1.3157919 m 0,-2.6315838 v 1.3157919 m 0,-2.6387234 v 1.3229315 m -0.44336,-1.7591428 0.44336,0.4362113 m -0.87955,-0.8795806 0.43619,0.4433693 m -0.87956,-0.8795806 0.44337,0.4362113 m -1.32297,-0.4362113 h 0.8796 m -6.58613,6.593257 2.19539,-6.593257 m -4.39791,0 2.20252,6.593257 m -7.02945,-4.8340958 h -0.44337 m 0.87956,-0.8795806 -0.43619,0.8795806 m 1.31579,-1.7591612 -0.8796,0.8795806 m 0.8796,5.7136764 v -6.593257 m 1.75916,6.593257 h -3.51832 m -5.71368,0 V 4.9947981 m -2.19537,2.1953541 h 4.83411 M 199.6247,58.59184 h 0.8796 m -1.31577,0.443406 0.43617,-0.443406 m -0.43617,1.32295 v -0.879544 m -0.44337,1.759143 0.44337,-0.879599 m -0.44337,2.631602 v -1.752003 m 0.44337,3.074953 -0.44337,-1.32295 m 0.44337,1.759143 v -0.436193 m 0.43617,0.879562 -0.43617,-0.443369 m 1.31577,0.879562 -0.8796,-0.436193 m 1.32297,0.436193 h -0.44337 m 1.32292,-0.436193 -0.87955,0.436193 m 0.87955,-0.879562 v 0.443369 m 0.43624,-0.879562 -0.43624,0.436193 m 0.87246,-1.759143 -0.43622,1.32295 m 0.43622,-3.074953 v 1.752003 m -0.43622,-2.631602 0.43622,0.879599 m -0.87246,-1.759143 0.43624,0.879544 m -0.43624,-1.32295 v 0.443406 m -0.87955,-0.443406 h 0.87955 m -1.32292,0 h 0.44337 m -7.47285,0 h 0.44337 m -0.87955,0.443406 0.43618,-0.443406 m -0.87957,1.32295 0.44339,-0.879544 m -0.44339,1.759143 V 59.91479 m 0,2.631602 v -1.752003 m 0,3.074953 v -1.32295 m 0.44339,1.759143 -0.44339,-0.436193 m 0.87957,0.879562 -0.43618,-0.443369 m 0.87955,0.879562 -0.44337,-0.436193 m 1.31579,0.436193 h -0.87242 m 1.31577,-0.436193 -0.44335,0.436193 m 0.8796,-0.879562 -0.43625,0.443369 m 0.8796,-0.879562 -0.44335,0.436193 m 0.87958,-1.759143 -0.43623,1.32295 m 0.43623,-3.074953 v 1.752003 m -0.43623,-2.631602 0.43623,0.879599 m -0.87958,-1.759143 0.44335,0.879544 m -0.8796,-1.32295 0.43625,0.443406 m -0.8796,-0.443406 h 0.44335 m -1.31577,0 h 0.87242 m -7.4657,0 h 0.43625 m -0.87242,0.443406 0.43617,-0.443406 m -0.87954,1.32295 0.44337,-0.879544 m -0.8796,1.759143 0.43623,-0.879599 m -0.43623,2.631602 v -1.752003 m 0.43623,3.074953 -0.43623,-1.32295 m 0.8796,1.759143 -0.44337,-0.436193 m 0.87954,0.879562 -0.43617,-0.443369 m 0.87242,0.879562 -0.43625,-0.436193 m 1.31579,0.436193 h -0.87954 m 1.32291,-0.436193 -0.44337,0.436193 m 0.8796,-0.879562 -0.43623,0.443369 m 0.8796,-0.879562 -0.44337,0.436193 m 0.44337,-1.759143 v 1.32295 m 0,-3.074953 v 1.752003 m 0,-2.631602 v 0.879599 m -0.44337,-1.759143 0.44337,0.879544 m -0.8796,-1.32295 0.43623,0.443406 m -0.8796,-0.443406 h 0.44337 m -1.32291,0 h 0.87954 m -9.22484,6.593257 h 4.39077 m -0.43622,-3.954497 -3.95455,3.954497 m 4.39077,-4.834096 -0.43622,0.879599 m 0.43622,-1.31581 v 0.436211 m -0.43622,-1.315755 0.43622,0.879544 m -0.43622,-1.32295 v 0.443406 m -0.8796,-0.443406 h 0.8796 m -2.63876,0 h 1.75916 m -2.19535,0 h 0.43619 m -0.87244,0.443406 0.43625,-0.443406 M 192.59525,52.113 v 3.51834 m -0.43622,-3.954552 0.43622,0.436212 m -0.87959,-0.879563 0.44337,0.443351 m -1.31582,-0.443351 h 0.87245 m -1.75199,0.443351 0.87954,-0.443351 M 189.96367,52.113 v -0.436212 m 0,0.436212 v 3.51834 m -0.44337,-3.954552 0.44337,0.436212 m -1.32297,-0.879563 0.8796,0.443351 m -1.75914,-0.443351 h 0.87954 m -1.31579,0.443351 0.43625,-0.443351 m -0.87242,0.879563 0.43617,-0.436212 m -0.43617,3.954552 v -4.397903 m -3.95457,-1.42305 h -2.63871 m 3.07495,-0.443388 -0.43624,0.443388 m 0.87246,-0.443388 h -0.43622 m 0.87955,-0.879562 -0.44333,0.879562 m 0.44333,-1.759161 v 0.879599 m -0.44333,-1.315792 0.44333,0.436193 m -0.87955,-0.872386 0.43622,0.436193 m -0.87246,-0.879599 0.43624,0.443406 m -3.07495,-0.443406 h 2.63871 m -2.63871,6.593294 v -6.593294 m 3.9545,6.593294 -2.19534,-3.074953" />
  <path
     id="path3274"
     style="fill:none;stroke:#0000c2;stroke-width:0.79072082;stroke-linecap:round;stroke-linejoin:round;stroke-miterlimit:10;stroke-dasharray:1.75744036, 1.75744036;stroke-opacity:1"
     d="m 175.90472,88.912299 h 72.49013 m 0,0 v 65.904031 m 0,0 h -72.49013 m 0,6.58608 h 105.44213 m 0,0 V 29.594386 m -105.44213,0 h 105.44213" />
  <path
     inkscape:connector-curvature="0"
     id="path3278"
     d="M 37.503435,88.912299 H 50.682791"
     style="fill:none;stroke:#008200;stroke-width:0.79072082;stroke-linecap:round;stroke-linejoin:round;stroke-miterlimit:10;stroke-opacity:1" />
  <path
     inkscape:connector-curvature="0"
     id="path3290"
     d="m 169.31146,29.594386 v 6.593257"
     style="fill:none;stroke:#008200;stroke-width:0.79072082;stroke-linecap:round;stroke-linejoin:round;stroke-miterlimit:10;stroke-opacity:1" />
  <path
     id="path3296"
     style="fill:none;stroke:#008200;stroke-width:0.79072082;stroke-linecap:round;stroke-linejoin:round;stroke-miterlimit:10;stroke-opacity:1"
     d="m 169.31146,88.912299 v 13.179351 m 0,-26.358744 v 13.179393 m -59.31076,0 v 13.179351 m 0,-13.179351 H 90.228072 m 79.083388,0 H 110.0007 m 59.31076,52.724621 v 13.17941 M 110.0007,141.63692 v 13.17941 m 0,0 h 59.31076 m 0,0 v 13.17934" />
  <path
     id="path3368"
     style="fill:none;stroke:#820000;stroke-width:0.79072082;stroke-linecap:round;stroke-linejoin:round;stroke-miterlimit:10;stroke-opacity:1"
     d="m 33.985131,94.625957 3.518304,-5.713658 M 3.2356369,94.625957 H 33.985131 M 3.2356369,88.912299 v 5.713658 m 0,-11.427353 v 5.713695 M 33.985131,83.198604 H 3.2356369 m 34.2677981,5.713695 -3.518304,-5.713695 m -5.706537,1.759143 h 3.511146 m -3.511146,6.586099 v -6.586099 m 3.511146,6.586099 h -3.511146 m 0,-3.074953 h 2.631584 m -6.586136,3.074953 2.195391,-6.586099 m -4.834096,0 2.638705,6.586099 m -4.397866,0 v -6.586099 m -4.390745,3.511146 H 13.34004 m 3.074953,0 H 15.535431 M 16.414993,88.0327 v 0.436193 m 0.43623,-0.879544 -0.43623,0.443351 m 0.43623,-1.759161 v 1.31581 m -0.43623,-1.752003 0.43623,0.436193 m -0.43623,-0.879599 v 0.443406 m -0.879562,-0.879599 0.879562,0.436193 M 13.34004,84.957747 h 2.195391 m -2.195391,6.586099 v -6.586099 m 3.511183,6.586099 -2.195391,-3.074953 M 8.0625749,91.543846 H 6.746783 m 2.1953908,0 H 8.0625749 M 9.821736,90.67146 8.9421738,91.543846 M 9.821736,90.228054 v 0.443406 m 0.443351,-1.759161 -0.443351,1.315755 M 10.265087,88.0327 v 0.879599 M 9.821736,86.716908 10.265087,88.0327 M 9.821736,86.273539 v 0.443369 M 8.9421738,85.39394 9.821736,86.273539 M 8.0625749,84.957747 8.9421738,85.39394 M 6.746783,84.957747 H 8.0625749 M 6.746783,91.543846 v -6.586099 m 50.529265,3.954552 H 50.682791 M 169.31146,135.04366 v 6.59326 m 0,-32.95201 v -6.59326 m 9.22484,27.6817 v 5.27031 m -18.44968,-21.0884 18.44968,15.81809 m -18.44968,-21.08844 v 5.27035 m -50.08592,13.17935 v 14.50231 m 0,-25.04296 v -14.50231 m -6.59325,5.27029 v 5.27752 m -2.63876,-2.63876 h 5.27746 m 15.811,9.22484 H 98.137103 m 23.720047,-2.63158 v 2.63158 m -23.720047,-2.63158 h 23.720047 m -23.720047,2.63158 v -2.63158 m 71.174357,-100.178967 3.95451,6.593294 m -3.95451,6.586099 V 16.414993 m -3.95455,6.593294 3.95455,-6.593294 m 0,26.365907 V 36.187643 M 83.634815,88.912299 h 6.593257"
     inkscape:connector-curvature="0"
     sodipodi:nodetypes="cccccccccccccccccccccccccccccccccccccccccccccccccccccccccccccccccccccccccccccccccccccccccccccccccccccccccccccc" />
  <path
     id="path3440"
     style="fill:none;stroke:#0000c2;stroke-width:0.79072082;stroke-linecap:round;stroke-linejoin:round;stroke-miterlimit:10;stroke-opacity:1"
     d="m 264.64919,116.25785 h 0.44335 m -1.31579,0.44341 0.87244,-0.44341 m -0.87244,0.8796 v -0.43619 m 0,6.14985 v -5.71366 m -0.8796,1.32295 h 2.19539 m -4.3979,0.32895 v -5.2775 m -0.43619,5.71369 0.43619,-0.43619 m -0.87244,0.87956 0.43625,-0.44337 m -0.8796,0.87957 0.44335,-0.4362 m -1.75914,0.4362 h 1.31579 m -2.19536,-0.4362 0.87957,0.4362 m -0.87957,-0.87957 v 0.44337 m -0.43624,-0.87956 0.43624,0.43619 m -0.43624,-5.71369 v 5.2775 m 45.68804,-25.815295 v 3.51834 m -0.43623,-3.954534 0.43623,0.436194 m -0.8796,-0.879563 0.44337,0.443369 m -1.75916,-0.443369 h 1.31579 m -1.75198,0.443369 0.43619,-0.443369 m -0.87956,0.879563 0.44337,-0.436194 m -0.44337,0.436194 v 3.51834 m 0,-3.954534 v 0.436194 m -0.8796,-0.879563 0.8796,0.443369 m -1.75914,-0.443369 h 0.87954 m -1.75198,0.443369 0.87244,-0.443369 m -0.87244,0.879563 v -0.436194 m 0,3.954534 v -4.397903 m -3.08211,0.328953 v -5.270344 m -0.4362,5.713695 0.4362,-0.443351 m -0.87245,0.879562 0.43625,-0.436211 m -0.8796,0.879599 0.44335,-0.443388 m -1.75914,0.443388 h 1.31579 m -2.19535,-0.443388 0.87956,0.443388 m -0.87956,-0.879599 v 0.436211 m -0.43625,-0.879562 0.43625,0.443351 m -0.43625,-5.713695 v 5.270344" />
  <path
     id="path3446"
     style="fill:#008200;fill-opacity:1;fill-rule:nonzero;stroke:#008200;stroke-width:0.39536041;stroke-linecap:round;stroke-linejoin:round;stroke-miterlimit:10;stroke-opacity:1"
     d="m 171.50683,88.91228 c 0,3.511165 -5.27032,3.511165 -5.27032,0 0,-3.518304 5.27032,-3.518304 5.27032,0 m -59.31077,0 c 0,3.511165 -5.27747,3.511165 -5.27747,0 0,-3.518304 5.27747,-3.518304 5.27747,0 m 59.31077,65.46064 c 0,3.51834 -5.27032,3.51834 -5.27032,0 0,-3.51116 5.27032,-3.51116 5.27032,0" />
</svg>
